<?xml version="1.0" encoding="UTF-8"?>
<svg xmlns="http://www.w3.org/2000/svg" xmlns:xlink="http://www.w3.org/1999/xlink" width="16px" height="16px" viewBox="0 0 16 16" version="1.1">
<g id="surface1">
<path style="fill-rule:nonzero;fill:rgb(55.294118%,64.705882%,95.294118%);fill-opacity:1;stroke-width:1;stroke-linecap:butt;stroke-linejoin:miter;stroke:rgb(55.294118%,64.705882%,95.294118%);stroke-opacity:1;stroke-miterlimit:4;" d="M 186.125 0.125 C 81 3.25 0 94.875 0 200 L 0 464 C 0 478.25 17.25 485.375 27.25 475.25 L 52.25 456.75 C 58.875 451.75 68.25 452.75 73.75 459 L 116.75 507.25 C 123 513.5 133.125 513.5 139.375 507.25 L 180 461.5 C 186.375 454.25 197.625 454.25 204 461.5 L 244.625 507.25 C 250.875 513.5 261 513.5 267.25 507.25 L 310.25 459 C 315.75 452.75 325.125 451.75 331.75 456.75 L 356.75 475.25 C 366.75 485.375 384 478.25 384 464 L 384 192 C 384 84 294.875 -3.125 186.125 0.125 Z M 128 224 C 110.375 224 96 209.625 96 192 C 96 174.375 110.375 160 128 160 C 145.625 160 160 174.375 160 192 C 160 209.625 145.625 224 128 224 Z M 256 224 C 238.375 224 224 209.625 224 192 C 224 174.375 238.375 160 256 160 C 273.625 160 288 174.375 288 192 C 288 209.625 273.625 224 256 224 Z M 256 224 " transform="matrix(0.03125,0,0,0.03125,2,0)"/>
</g>
</svg>
