<?xml version="1.0" encoding="UTF-8"?>
<svg xmlns="http://www.w3.org/2000/svg" xmlns:xlink="http://www.w3.org/1999/xlink" width="64pt" height="64pt" viewBox="0 0 64 64" version="1.1">
<g id="surface1">
<path style=" stroke:none;fill-rule:nonzero;fill:rgb(87.843137%,87.843137%,87.843137%);fill-opacity:1;" d="M 60 0 L 20 0 C 17.789062 0 16 1.789062 16 4 L 16 24 L 4 24 C 1.789062 24 0 25.789062 0 28 L 0 52 C 0 58.628906 5.371094 64 12 64 L 52 64 C 58.625 64 64 58.625 64 52 L 64 4 C 64 1.789062 62.210938 0 60 0 Z M 16 52 C 16 54.210938 14.210938 56 12 56 C 9.789062 56 8 54.210938 8 52 L 8 32 L 16 32 Z M 44 40 L 36 40 C 33.789062 40 32 38.210938 32 36 C 32 33.789062 33.789062 32 36 32 L 44 32 C 46.210938 32 48 33.789062 48 36 C 48 38.210938 46.210938 40 44 40 Z M 44 24 L 36 24 C 33.789062 24 32 22.210938 32 20 C 32 17.789062 33.789062 16 36 16 L 44 16 C 46.210938 16 48 17.789062 48 20 C 48 22.210938 46.210938 24 44 24 Z M 44 24 "/>
</g>
</svg>
